<?xml version="1.0" encoding="UTF-8" standalone="no"?>
<!-- Created with Inkscape (http://www.inkscape.org/) -->

<svg
   xmlns:dc="http://purl.org/dc/elements/1.1/"
   xmlns:cc="http://creativecommons.org/ns#"
   xmlns:rdf="http://www.w3.org/1999/02/22-rdf-syntax-ns#"
   xmlns:svg="http://www.w3.org/2000/svg"
   xmlns="http://www.w3.org/2000/svg"
   xmlns:sodipodi="http://sodipodi.sourceforge.net/DTD/sodipodi-0.dtd"
   xmlns:inkscape="http://www.inkscape.org/namespaces/inkscape"
   width="686.38501mm"
   height="132.29201mm"
   viewBox="0 0 686.38502 132.29201"
   version="1.1"
   id="svg8"
   sodipodi:docname="logo.svg"
   inkscape:version="0.92.3 (2405546, 2018-03-11)">
  <defs
     id="defs2" />
  <sodipodi:namedview
     id="base"
     pagecolor="#ffffff"
     bordercolor="#666666"
     borderopacity="1.0"
     inkscape:pageopacity="0.0"
     inkscape:pageshadow="2"
     inkscape:zoom="0.35355339"
     inkscape:cx="1830.8421"
     inkscape:cy="83.509656"
     inkscape:document-units="mm"
     inkscape:current-layer="layer1"
     showgrid="false"
     inkscape:window-width="1920"
     inkscape:window-height="1001"
     inkscape:window-x="-9"
     inkscape:window-y="-9"
     inkscape:window-maximized="1" />
  <metadata
     id="metadata5">
    <rdf:RDF>
      <cc:Work
         rdf:about="">
        <dc:format>image/svg+xml</dc:format>
        <dc:type
           rdf:resource="http://purl.org/dc/dcmitype/StillImage" />
        <dc:title></dc:title>
      </cc:Work>
    </rdf:RDF>
  </metadata>
  <g
     inkscape:label="Layer 1"
     inkscape:groupmode="layer"
     id="layer1"
     transform="translate(0,-164.708)">
    <path
       style="fill:#ffffff;stroke-width:0.23587726"
       d="m 72.699438,164.7084 c -9.280269,0 -9.952342,0.027 -11.199834,0.45166 -1.723369,0.5867 -3.101504,1.6777 -4.015774,3.17965 -0.705152,1.15838 -0.737108,1.33621 -0.818039,4.51445 -0.0547,2.14759 -0.184957,3.38337 -0.371036,3.52278 -0.15766,0.11812 -1.829972,0.68351 -3.716051,1.25626 -1.886061,0.57273 -5.032344,1.74625 -6.991824,2.6081 -1.959448,0.86186 -3.632417,1.56683 -3.718118,1.56683 -0.0857,0 -1.228373,-0.94666 -2.538862,-2.10374 -2.929282,-2.58638 -4.306073,-3.17427 -7.060552,-3.01584 -2.88743,0.16607 -3.388415,0.51054 -11.277864,7.74526 -7.857429,7.20528 -7.888436,7.24488 -7.883755,10.18336 0.004,2.16206 0.75548,3.45796 3.46697,5.9738 1.219811,1.13179 2.21847,2.13625 2.21847,2.2319 0,0.0957 -0.769596,1.60811 -1.709457,3.36104 -0.93985,1.75291 -2.23357,4.60456 -2.874759,6.33708 -0.64122,1.7325 -1.268325,3.26768 -1.393713,3.41116 -0.148011,0.16933 -1.503358,0.28913 -3.863848,0.3421 -3.37829,0.0758 -3.725918,0.12454 -4.911328,0.68884 -1.51818,0.72273 -2.90871,2.18979 -3.564642,3.7605 C 0.034462,221.7796 0,222.52446 0,230.85217 c 0,8.45023 0.02929,9.06217 0.496094,10.19731 0.64479,1.56812 1.844217,2.82161 3.494876,3.65352 1.273101,0.64161 1.467512,0.67153 4.960422,0.74518 2.360221,0.0497 3.718896,0.1681 3.872116,0.33744 0.129778,0.14345 0.750797,1.66454 1.380275,3.38068 0.629412,1.71617 1.91983,4.57895 2.86701,6.36188 0.947211,1.78296 1.722376,3.30572 1.722376,3.38326 0,0.0776 -1.006959,1.08787 -2.237589,2.24534 -2.72048,2.5588 -3.444123,3.80607 -3.447851,5.9433 -0.005,2.93847 0.02638,2.97807 7.883755,10.18336 8.267221,7.58113 8.424034,7.68361 11.772923,7.68429 2.835101,5.9e-4 3.600739,-0.35025 6.67298,-3.0546 1.252389,-1.10243 2.359019,-2.00453 2.459281,-2.00453 0.100218,0 1.758587,0.69977 3.685045,1.55495 1.926471,0.8552 5.060921,2.03243 6.96495,2.61586 1.90405,0.58344 3.590432,1.15405 3.748092,1.26814 0.186111,0.13467 0.317974,1.36772 0.376203,3.51555 0.0833,3.07395 0.136901,3.39086 0.757061,4.46949 0.779909,1.3564 2.391177,2.63655 4.068484,3.23288 1.090031,0.38757 2.00828,0.42336 11.138339,0.43305 9.23874,0.01 10.039763,-0.0201 11.202935,-0.4222 1.726218,-0.59683 3.338272,-1.86234 4.132562,-3.24373 0.62018,-1.07863 0.67429,-1.39554 0.75758,-4.46949 0.0582,-2.14783 0.19012,-3.38088 0.3762,-3.51555 0.15766,-0.11409 1.84456,-0.6847 3.74861,-1.26814 1.90405,-0.58343 5.03796,-1.76066 6.96443,-2.61586 1.926441,-0.85518 3.581911,-1.55495 3.678851,-1.55495 0.097,0 1.26564,0.95213 2.59726,2.11512 2.96908,2.59304 4.3027,3.16221 7.03625,3.00499 2.88743,-0.16607 3.38842,-0.51057 11.27787,-7.74527 7.85743,-7.20529 7.88844,-7.24489 7.88376,-10.18336 -0.004,-2.13723 -0.72684,-3.3845 -3.44734,-5.9433 -1.2306,-1.15747 -2.23758,-2.16778 -2.23758,-2.24534 0,-0.0776 0.77468,-1.6003 1.72186,-3.38326 0.94721,-1.78293 2.23755,-4.64571 2.867,-6.36188 0.39714,-1.08275 0.77618,-2.0442 1.04542,-2.67478 H 99.955659 c -0.92896,1.31251 -1.98998,2.58926 -3.18534,3.83336 -4.77905,4.97391 -11.4734,8.37317 -18.57561,9.4325 -11.31793,1.68816 -22.224343,-1.79134 -29.566152,-9.4325 -5.52322,-5.74841 -8.126638,-11.98482 -8.126635,-19.46651 0,-8.5875 3.832431,-16.35671 10.80399,-21.90254 6.259679,-4.97955 13.266026,-7.4042 21.393526,-7.4042 8.127489,0 15.133871,2.42465 21.393521,7.4042 2.31776,1.84376 4.29306,3.95279 5.89835,6.2606 h 32.257451 c -0.27014,-0.63615 -0.65227,-1.60449 -1.0547,-2.69544 -0.63905,-1.73252 -1.93329,-4.58415 -2.87528,-6.33708 -0.942,-1.75296 -1.71255,-3.26595 -1.71255,-3.36156 0,-0.0956 0.99814,-1.09959 2.21795,-2.23138 2.71148,-2.51584 3.46324,-3.81174 3.46697,-5.9738 0.005,-2.93848 -0.0264,-2.97808 -7.88376,-10.18336 -7.88945,-7.23472 -8.39044,-7.57919 -11.27787,-7.74526 -2.75447,-0.15843 -4.13174,0.42946 -7.06106,3.01584 -1.31046,1.15708 -2.45265,2.10374 -2.53835,2.10374 -0.0857,0 -1.75864,-0.70497 -3.718111,-1.56683 -1.95947,-0.86185 -5.10577,-2.03537 -6.99182,-2.6081 -1.88609,-0.57275 -3.5584,-1.13814 -3.71606,-1.25626 -0.18606,-0.13941 -0.31635,-1.37519 -0.37103,-3.52278 -0.0809,-3.17824 -0.1129,-3.35607 -0.81804,-4.51445 -0.91427,-1.50195 -2.292417,-2.59295 -4.015778,-3.17965 -1.2475,-0.4247 -1.919584,-0.45166 -11.199833,-0.45166 z m 331.231452,28.80755 v 73.68387 h 15.96493 v -36.79465 c 0.85019,-0.94467 1.9367,-1.66866 3.25922,-2.17248 1.32255,-0.53531 2.88084,-0.80305 4.67569,-0.80305 2.04676,0 3.57399,0.74004 4.58163,2.22002 1.00764,1.47997 1.51154,4.17241 1.51154,8.07702 v 29.47314 h 15.9649 v -29.37908 c 0,-7.74626 -1.51167,-13.46154 -4.53458,-17.14573 -3.02295,-3.68419 -7.17942,-5.52628 -12.46952,-5.52628 -2.67656,0 -5.13234,0.6458 -7.36804,1.93684 -2.20422,1.25955 -4.07789,3.03845 -5.62084,5.33714 v -28.90676 z m 266.44266,0 v 73.68387 h 16.01193 v -73.68387 z m -377.68495,3.92069 c -8.15562,0 -14.83103,2.62925 -20.02668,7.88789 -5.16419,5.25863 -7.74631,12.02882 -7.74631,20.31039 v 14.35881 c 0,8.34453 2.66086,15.13027 7.98245,20.35741 5.32162,5.22715 12.24926,7.84087 20.78273,7.84087 6.83305,0 12.42198,-1.02333 16.76744,-3.0701 4.34546,-2.04677 7.71475,-4.51859 10.1079,-7.41557 v -27.25363 h -28.15074 v 10.58023 h 12.18584 v 12.28039 c -0.97616,0.78722 -2.31434,1.41696 -4.01474,1.88929 -1.66891,0.47233 -3.96777,0.70848 -6.89623,0.70848 -4.06207,0 -7.22627,-1.44849 -9.49349,-4.34547 -2.2357,-2.92846 -3.35378,-6.7856 -3.35378,-11.5719 v -14.45338 c 0,-4.69184 1.13364,-8.50185 3.40083,-11.43031 2.26718,-2.92846 5.25843,-4.39301 8.97413,-4.39301 3.6212,0 6.32968,0.81876 8.12456,2.45618 1.79486,1.63741 2.69235,4.14083 2.69235,7.51013 h 14.97272 l 0.0946,-0.28319 c 0.15745,-6.80158 -2.01557,-12.15486 -6.51846,-16.05948 -4.4714,-3.9361 -11.09969,-5.90403 -19.88508,-5.90403 z m 76.7147,0 c -8.15563,0 -14.72073,2.6132 -19.69596,7.84035 -4.94376,5.19565 -7.41558,11.9819 -7.41558,20.35793 v 14.35881 c 0,8.40751 2.56609,15.20929 7.69877,20.40495 5.16416,5.19566 11.99753,7.79333 20.49952,7.79333 8.34453,0 14.7838,-2.01558 19.3182,-6.04615 4.56587,-4.06205 6.78601,-10.01348 6.66004,-17.8542 l -0.0946,-0.28319 h -15.53961 c 0,4.28248 -0.81876,7.33691 -2.45618,9.16327 -1.60595,1.82635 -4.23519,2.73936 -7.88789,2.73936 -3.9361,0 -6.95947,-1.44849 -9.06923,-4.34547 -2.10974,-2.89697 -3.16466,-6.75412 -3.16466,-11.5719 v -14.45338 c 0,-4.7863 0.96068,-8.61237 2.88147,-11.47786 1.92083,-2.89697 4.67593,-4.34546 8.26567,-4.34546 4.09352,0 7.03765,0.91353 8.83253,2.73988 1.79485,1.82635 2.69235,4.84919 2.69235,9.0687 h 15.54011 l 0.14161,-0.28371 c 0.12594,-7.74625 -2.20448,-13.65003 -6.9908,-17.71209 -4.7548,-4.06206 -11.49342,-6.09317 -20.2158,-6.09317 z m -215.34398,0.99167 v 68.77151 h 15.91739 v -68.77151 z m 27.91457,0 v 68.77151 h 15.96494 v -43.64333 l 0.28318,-0.047 14.87868,43.69036 h 10.72182 l 15.16187,-44.35181 0.28371,0.047 v 44.30479 h 15.9644 v -68.77151 h -21.11293 l -15.53961,48.13091 h -0.28371 L 202.8982,198.42831 Z M 76.411357,209.52686 c -0.147461,0.004 -0.298056,0.013 -0.451136,0.0279 -3.314049,0.32353 -5.381228,3.0398 -5.031216,5.84254 0.254558,2.03834 2.038485,3.47605 4.704104,3.21582 3.31402,-0.32352 5.18125,-2.89097 4.83123,-5.69371 -0.283371,-2.26925 -1.841074,-3.45076 -4.052982,-3.39255 z m 463.503993,5.62187 c -3.02292,0 -5.7625,0.72451 -8.2186,2.173 -2.45612,1.417 -4.51831,3.40098 -6.18723,5.95157 l -0.61444,-7.1794 h -14.97272 v 51.10592 h 15.91736 v -36.32233 c 0.91319,-1.10211 2.04682,-1.95194 3.40083,-2.55023 1.35403,-0.59829 2.88123,-0.89762 4.58165,-0.89762 1.9838,0 3.49547,0.69291 4.53459,2.07842 1.03913,1.35402 1.55856,3.65236 1.55856,6.89571 v 30.79605 h 15.96493 v -30.74851 c 0,-7.39987 -1.41693,-12.80028 -4.2509,-16.20108 -2.80252,-3.40079 -6.7073,-5.1015 -11.71403,-5.1015 z m 54.4127,0 c -3.02292,0 -5.76247,0.72451 -8.21862,2.173 -2.45613,1.417 -4.51829,3.40098 -6.18721,5.95157 l -0.61444,-7.1794 h -14.97272 v 51.10592 h 15.91736 v -36.32233 c 0.91319,-1.10211 2.04682,-1.95194 3.40083,-2.55023 1.35403,-0.59829 2.88126,-0.89762 4.58163,-0.89762 1.98382,0 3.49549,0.69291 4.53461,2.07842 1.03915,1.35402 1.55856,3.65236 1.55856,6.89571 v 30.79605 h 15.96493 v -30.74851 c 0,-7.39987 -1.41693,-12.80028 -4.2509,-16.20108 -2.80252,-3.40079 -6.7073,-5.1015 -11.71403,-5.1015 z m 46.76097,0 c -7.84071,-0.0315 -13.83927,2.40926 -17.99579,7.32152 -4.12504,4.91226 -6.18773,11.27281 -6.18773,19.08204 v 1.79472 c 0,7.17946 2.18852,13.11535 6.56547,17.80718 4.40846,4.69184 10.48573,7.03782 18.23196,7.03782 4.09356,0 7.99836,-0.55103 11.71403,-1.65313 3.71568,-1.10211 6.67534,-2.45636 8.87955,-4.06229 l -3.82561,-9.73015 c -2.61355,1.10211 -4.944,1.90533 -6.99076,2.40915 -2.01531,0.50382 -4.54978,0.75551 -7.60421,0.75551 -3.24334,0 -5.73122,-0.81876 -7.4631,-2.45618 -1.73188,-1.6689 -2.72362,-3.84139 -2.97553,-6.51795 l 0.0946,-0.28318 h 29.28453 v -8.36073 c 0,-7.17946 -1.90526,-12.83155 -5.71542,-16.95659 -3.77865,-4.12503 -9.1159,-6.18774 -16.01195,-6.18774 z m -160.97104,5.2e-4 c -6.73862,0 -12.17009,1.57435 -16.29513,4.72323 -4.09356,3.1174 -6.03041,7.00612 -5.80999,11.66647 l 0.0946,0.28318 15.4926,0.0475 c 0,-1.82636 0.44072,-3.16455 1.32242,-4.01474 0.91315,-0.88169 2.29848,-1.32292 4.15633,-1.32292 2.14122,0 3.73164,0.58261 4.77076,1.7477 1.03912,1.16508 1.55855,2.83419 1.55855,5.00693 v 3.63698 h -6.56547 c -7.74626,0 -13.52421,1.38532 -17.33434,4.15634 -3.81016,2.73952 -5.71542,6.64431 -5.71542,11.71401 0,4.75481 1.48008,8.5177 4.44002,11.28872 2.99146,2.73952 7.16397,4.10931 12.51707,4.10931 3.27486,0 5.91966,-0.80323 7.93494,-2.40916 2.04676,-1.63742 3.76301,-3.80991 5.14852,-6.51795 0.2204,1.47998 0.53528,2.89689 0.94464,4.25091 0.44085,1.35402 0.96026,2.56636 1.55856,3.63698 l 15.77578,0.047 c -0.91318,-2.33017 -1.60557,-4.6601 -2.07791,-6.99027 -0.44084,-2.33017 -0.66145,-4.84912 -0.66145,-7.55716 v -19.27118 c 0,-5.85692 -1.96795,-10.35985 -5.90405,-13.50873 -3.90461,-3.14888 -9.02173,-4.72323 -15.35099,-4.72323 z M 74.904988,223.7942 c -0.101049,-8.7e-4 -0.201697,0.003 -0.300757,0.0129 -3.81835,0.37276 -10.200716,4.15511 -13.566097,8.739 -0.216591,0.60143 0.463656,1.37345 1.344104,1.41645 1.033391,-1.06801 4.733534,-4.13754 5.958293,-4.2571 0.360219,-0.0352 0.407791,0.34729 0.255283,0.87798 l -5.511811,16.59227 c -0.417269,1.33023 -0.609938,2.12291 -0.522446,2.8236 0.0955,0.76437 1.759196,2.40701 3.632335,2.22415 5.907651,-0.57672 11.786526,-5.47019 14.182598,-9.05681 0.112739,-0.84918 -0.695077,-1.47966 -1.559595,-1.39526 -1.610211,1.70459 -5.262316,4.57567 -6.270937,4.67413 -0.504288,0.0492 -0.624326,-0.32618 -0.407725,-0.92759 l 5.543846,-16.3375 c 0.312952,-0.99768 0.666088,-2.2569 0.586528,-2.89388 -0.164071,-1.31378 -1.84781,-2.47931 -3.363619,-2.49236 z m 566.184032,3.63544 c 2.2357,0 3.81005,0.67686 4.72324,2.03088 0.94467,1.35402 1.41697,3.35354 1.41697,5.9986 v 1.22835 H 633.4373 l -0.0946,-0.23616 c 0.18894,-2.77101 0.88185,-4.95956 2.0784,-6.56549 1.22809,-1.63742 3.1173,-2.45618 5.66788,-2.45618 z m -162.1043,17.9958 h 6.42336 v 6.75462 c -0.59827,1.25956 -1.65319,2.34554 -3.16465,3.25872 -1.47997,0.91317 -3.19569,1.36994 -5.148,1.36994 -1.57445,0 -2.86552,-0.44071 -3.87315,-1.3224 -0.97616,-0.91317 -1.46453,-2.09393 -1.46453,-3.54242 0,-1.88933 0.56709,-3.44814 1.70069,-4.6762 1.13358,-1.22806 2.97567,-1.84226 5.52628,-1.84226 z"
       id="path380"
       inkscape:connector-curvature="0" />
    <g
       aria-label="i"
       transform="matrix(1.0570694,-0.10319444,0.11671478,0.93461762,0,0)"
       style="font-style:normal;font-variant:normal;font-weight:normal;font-stretch:normal;font-size:68.15313721px;line-height:1.25;font-family:'Source Sans Pro';-inkscape-font-specification:'Source Sans Pro, Normal';font-variant-ligatures:normal;font-variant-caps:normal;font-variant-numeric:normal;font-feature-settings:normal;text-align:start;letter-spacing:0px;word-spacing:0px;writing-mode:lr-tb;text-anchor:start;fill:#000000;fill-opacity:1;stroke:none;stroke-width:2.83971429"
       id="text5031" />
    <g
       aria-label="IMG"
       style="font-style:normal;font-variant:normal;font-weight:normal;font-stretch:normal;font-size:311.62454224px;line-height:1.25;font-family:'Source Sans Pro';-inkscape-font-specification:'Source Sans Pro, Normal';font-variant-ligatures:normal;font-variant-caps:normal;font-variant-numeric:normal;font-feature-settings:normal;text-align:start;letter-spacing:0px;word-spacing:0px;writing-mode:lr-tb;text-anchor:start;fill:#000000;fill-opacity:1;stroke:none;stroke-width:12.98435402"
       id="text11" />
    <g
       aria-label="Channel"
       style="font-style:normal;font-variant:normal;font-weight:normal;font-stretch:normal;font-size:311.62454224px;line-height:1.25;font-family:'Source Sans Pro';-inkscape-font-specification:'Source Sans Pro, Normal';font-variant-ligatures:normal;font-variant-caps:normal;font-variant-numeric:normal;font-feature-settings:normal;text-align:start;letter-spacing:0px;word-spacing:0px;writing-mode:lr-tb;text-anchor:start;fill:#000000;fill-opacity:1;stroke:none;stroke-width:12.98435402"
       id="text15" />
  </g>
</svg>
