<?xml version="1.0" encoding="UTF-8" standalone="no"?>
<!-- Created with Inkscape (http://www.inkscape.org/) -->

<svg
   xmlns:dc="http://purl.org/dc/elements/1.1/"
   xmlns:cc="http://creativecommons.org/ns#"
   xmlns:rdf="http://www.w3.org/1999/02/22-rdf-syntax-ns#"
   xmlns:svg="http://www.w3.org/2000/svg"
   xmlns="http://www.w3.org/2000/svg"
   xmlns:sodipodi="http://sodipodi.sourceforge.net/DTD/sodipodi-0.dtd"
   xmlns:inkscape="http://www.inkscape.org/namespaces/inkscape"
   width="132.29201mm"
   height="132.29201mm"
   viewBox="0 0 132.29201 132.29201"
   version="1.1"
   id="svg8"
   sodipodi:docname="logo.svg"
   inkscape:version="0.92.3 (2405546, 2018-03-11)">
  <defs
     id="defs2" />
  <sodipodi:namedview
     id="base"
     pagecolor="#ffffff"
     bordercolor="#666666"
     borderopacity="1.0"
     inkscape:pageopacity="0.0"
     inkscape:pageshadow="2"
     inkscape:zoom="0.70710678"
     inkscape:cx="245.91408"
     inkscape:cy="149.04956"
     inkscape:document-units="mm"
     inkscape:current-layer="layer1"
     showgrid="false"
     inkscape:window-width="1920"
     inkscape:window-height="1001"
     inkscape:window-x="-9"
     inkscape:window-y="-9"
     inkscape:window-maximized="1" />
  <metadata
     id="metadata5">
    <rdf:RDF>
      <cc:Work
         rdf:about="">
        <dc:format>image/svg+xml</dc:format>
        <dc:type
           rdf:resource="http://purl.org/dc/dcmitype/StillImage" />
        <dc:title></dc:title>
      </cc:Work>
    </rdf:RDF>
  </metadata>
  <g
     inkscape:label="Layer 1"
     inkscape:groupmode="layer"
     id="layer1"
     transform="translate(0,-164.708)">
    <path
       style="fill:#ffffff;stroke-width:0.23587728"
       d="m 72.699622,164.7084 c -9.280263,0 -9.952386,0.027 -11.199873,0.45165 -1.723368,0.5867 -3.101507,1.6777 -4.015776,3.17965 -0.705143,1.15838 -0.737105,1.33622 -0.818041,4.51446 -0.05472,2.14759 -0.184971,3.38337 -0.371053,3.52278 -0.157666,0.11812 -1.829969,0.68351 -3.716056,1.25625 -1.886061,0.57274 -5.032362,1.74625 -6.991844,2.60811 -1.959457,0.86186 -3.632421,1.56683 -3.71812,1.56683 -0.0857,0 -1.228385,-0.94666 -2.538869,-2.10374 -2.929288,-2.58638 -4.306078,-3.17427 -7.060556,-3.01584 -2.887432,0.16607 -3.388449,0.51054 -11.277894,7.74526 -7.85743,7.20528 -7.888466,7.24488 -7.883783,10.18336 0.004,2.16206 0.755493,3.45796 3.466977,5.9738 1.219811,1.13179 2.218483,2.13625 2.218483,2.2319 0,0.0957 -0.769622,1.60811 -1.709477,3.36104 -0.939856,1.75291 -2.233565,4.60456 -2.874757,6.33708 -0.64122,1.7325 -1.268338,3.26768 -1.393724,3.41116 -0.148008,0.16933 -1.503366,0.28913 -3.863852,0.3421 -3.378289,0.0758 -3.725926,0.12454 -4.911341,0.68884 -1.518184,0.72272 -2.908731,2.18979 -3.564661,3.7605 C 0.034449,221.7796 0,222.52446 0,230.85217 c 0,8.45023 0.02932,9.06217 0.496095,10.19731 0.644792,1.56812 1.844204,2.82161 3.494864,3.65352 1.2731,0.64161 1.467542,0.67153 4.960448,0.74518 2.360221,0.0497 3.718914,0.1681 3.872134,0.33744 0.129778,0.14345 0.75081,1.66453 1.380282,3.38067 0.629418,1.71617 1.919821,4.57896 2.867006,6.36189 0.94721,1.78296 1.722388,3.30571 1.722388,3.38325 0,0.0776 -1.006979,1.08788 -2.237612,2.24535 -2.72048,2.5588 -3.444117,3.80607 -3.447848,5.9433 -0.005,2.93847 0.02641,2.97807 7.883783,10.18336 8.267218,7.58113 8.424038,7.68361 11.77293,7.68429 2.835097,5.9e-4 3.600777,-0.35025 6.67302,-3.0546 1.252383,-1.10243 2.359031,-2.00453 2.459283,-2.00453 0.100224,0 1.758584,0.69977 3.685046,1.55495 1.926463,0.8552 5.060937,2.03243 6.964963,2.61586 1.904052,0.58344 3.590431,1.15405 3.748097,1.26814 0.186108,0.13467 0.317976,1.36772 0.376212,3.51555 0.08332,3.07395 0.136896,3.39086 0.757054,4.46949 0.779915,1.3564 2.391205,2.63655 4.068508,3.23288 1.090034,0.38757 2.008325,0.42336 11.138379,0.43305 9.23874,0.01 10.03977,-0.0201 11.20294,-0.4222 1.72622,-0.59683 3.3383,-1.86234 4.13259,-3.24373 0.62018,-1.07863 0.67429,-1.39554 0.75758,-4.46949 0.0582,-2.14783 0.19011,-3.38088 0.37619,-3.51555 0.15766,-0.11409 1.84457,-0.6847 3.74862,-1.26814 1.90405,-0.58343 5.038,-1.76066 6.96447,-2.61586 1.926448,-0.85518 3.581908,-1.55495 3.678848,-1.55495 0.097,0 1.26564,0.95213 2.59726,2.11512 2.96908,2.59304 4.30271,3.1622 7.03627,3.00498 2.88743,-0.16607 3.38842,-0.51056 11.27789,-7.74526 7.85743,-7.20529 7.88847,-7.24489 7.88378,-10.18336 -0.004,-2.13723 -0.72734,-3.3845 -3.44784,-5.9433 -1.23061,-1.15747 -2.23708,-2.16779 -2.23708,-2.24535 0,-0.0776 0.77467,-1.60029 1.72185,-3.38325 0.94721,-1.78293 2.23757,-4.64572 2.86701,-6.36189 0.39714,-1.08275 0.77618,-2.04419 1.04542,-2.67477 H 99.955902 c -0.92896,1.31251 -1.98997,2.58926 -3.18533,3.83336 -4.77905,4.97391 -11.47347,8.37317 -18.57568,9.4325 -11.317923,1.68816 -22.224419,-1.79134 -29.566229,-9.4325 -5.523217,-5.74841 -8.126645,-11.98482 -8.126645,-19.46651 0,-8.5875 3.832473,-16.35671 10.804024,-21.90254 6.259687,-4.97955 13.266083,-7.4042 21.39358,-7.4042 8.12749,0 15.13391,2.42465 21.39357,7.4042 2.31776,1.84376 4.29308,3.95279 5.89837,6.2606 h 32.257028 c -0.27014,-0.63615 -0.65228,-1.60449 -1.05471,-2.69544 -0.63905,-1.73252 -1.93279,-4.58415 -2.87479,-6.33708 -0.942,-1.75296 -1.71254,-3.26595 -1.71254,-3.36156 0,-0.0956 0.99814,-1.09959 2.21795,-2.23138 2.71148,-2.51584 3.46324,-3.81174 3.46697,-5.9738 0.005,-2.93848 -0.0264,-2.97808 -7.88378,-10.18336 -7.88947,-7.23472 -8.39046,-7.57919 -11.27789,-7.74526 -2.75448,-0.15843 -4.13177,0.42946 -7.06109,3.01584 -1.31046,1.15708 -2.45264,2.10374 -2.53833,2.10374 -0.0857,0 -1.75867,-0.70497 -3.718148,-1.56683 -1.95946,-0.86186 -5.10576,-2.03537 -6.99182,-2.60811 -1.88609,-0.57274 -3.55842,-1.13813 -3.71608,-1.25625 -0.18606,-0.13941 -0.31634,-1.37519 -0.37103,-3.52278 -0.0809,-3.17824 -0.1129,-3.35608 -0.81804,-4.51446 -0.91427,-1.50195 -2.29241,-2.59295 -4.01577,-3.17965 -1.2475,-0.42469 -1.91962,-0.45165 -11.19987,-0.45165 z m 3.71193,44.81845 c -0.14746,0.004 -0.29806,0.013 -0.45114,0.0279 -3.31405,0.32353 -5.38125,3.0398 -5.03124,5.84254 0.25456,2.03834 2.0385,3.47605 4.70412,3.21582 3.31402,-0.32352 5.18125,-2.89097 4.83123,-5.69371 -0.28337,-2.26925 -1.84106,-3.45077 -4.05297,-3.39256 z m -1.50639,14.26735 c -0.10105,-8.7e-4 -0.20169,0.003 -0.30075,0.0129 -3.81835,0.37276 -10.200747,4.15511 -13.566124,8.739 -0.216589,0.60143 0.463657,1.37345 1.344113,1.41645 1.033386,-1.06801 4.73354,-4.13754 5.9583,-4.2571 0.360211,-0.0352 0.407781,0.34729 0.255271,0.87798 l -5.511815,16.59227 c -0.417275,1.33023 -0.609945,2.12291 -0.522447,2.8236 0.09546,0.76437 1.759192,2.40701 3.632341,2.22415 5.907641,-0.57672 11.786561,-5.47019 14.182631,-9.05681 0.11274,-0.84918 -0.69507,-1.47966 -1.55959,-1.39526 -1.61021,1.70459 -5.26234,4.57567 -6.27096,4.67413 -0.50429,0.0492 -0.62432,-0.32618 -0.40772,-0.92759 l 5.54385,-16.33751 c 0.31295,-0.99767 0.66609,-2.2569 0.58653,-2.89388 -0.16407,-1.31378 -1.84782,-2.4793 -3.36363,-2.49235 z"
       id="path380"
       inkscape:connector-curvature="0" />
    <g
       aria-label="i"
       transform="matrix(1.0570694,-0.10319444,0.11671478,0.93461762,0,0)"
       style="font-style:normal;font-variant:normal;font-weight:normal;font-stretch:normal;font-size:68.15313721px;line-height:1.25;font-family:'Source Sans Pro';-inkscape-font-specification:'Source Sans Pro, Normal';font-variant-ligatures:normal;font-variant-caps:normal;font-variant-numeric:normal;font-feature-settings:normal;text-align:start;letter-spacing:0px;word-spacing:0px;writing-mode:lr-tb;text-anchor:start;fill:#000000;fill-opacity:1;stroke:none;stroke-width:2.83971429"
       id="text5031" />
  </g>
</svg>
