<?xml version="1.0" encoding="UTF-8" standalone="no"?>
<!-- Created with Inkscape (http://www.inkscape.org/) -->

<svg
   xmlns:dc="http://purl.org/dc/elements/1.1/"
   xmlns:cc="http://creativecommons.org/ns#"
   xmlns:rdf="http://www.w3.org/1999/02/22-rdf-syntax-ns#"
   xmlns:svg="http://www.w3.org/2000/svg"
   xmlns="http://www.w3.org/2000/svg"
   xmlns:sodipodi="http://sodipodi.sourceforge.net/DTD/sodipodi-0.dtd"
   xmlns:inkscape="http://www.inkscape.org/namespaces/inkscape"
   width="105.833mm"
   height="105.833mm"
   viewBox="0 0 105.833 105.833"
   version="1.1"
   id="svg8"
   sodipodi:docname="logo.svg"
   inkscape:version="0.92.3 (2405546, 2018-03-11)">
  <defs
     id="defs2" />
  <sodipodi:namedview
     id="base"
     pagecolor="#ffffff"
     bordercolor="#666666"
     borderopacity="1.0"
     inkscape:pageopacity="0.0"
     inkscape:pageshadow="2"
     inkscape:zoom="0.5"
     inkscape:cx="784.95738"
     inkscape:cy="502.22822"
     inkscape:document-units="mm"
     inkscape:current-layer="layer1"
     showgrid="false"
     inkscape:window-width="1920"
     inkscape:window-height="1001"
     inkscape:window-x="-9"
     inkscape:window-y="-9"
     inkscape:window-maximized="1" />
  <metadata
     id="metadata5">
    <rdf:RDF>
      <cc:Work
         rdf:about="">
        <dc:format>image/svg+xml</dc:format>
        <dc:type
           rdf:resource="http://purl.org/dc/dcmitype/StillImage" />
        <dc:title></dc:title>
      </cc:Work>
    </rdf:RDF>
  </metadata>
  <g
     inkscape:label="Layer 1"
     inkscape:groupmode="layer"
     id="layer1"
     transform="translate(0,-191.167)">
    <path
       style="fill:#f9f9f9;fill-opacity:1;stroke-width:0.21323867"
       d="m 18.147451,191.16667 -2.354229,0.022 c -2.786879,0.026 -4.444584,0.40463 -6.8486673,1.5644 -3.240922,1.56348 -5.793736,4.16787 -7.400023,7.54937 -1.60460099,3.37794 -1.49969599,-0.57576 -1.43377099,54.07091 0,0 -0.284783,28.31605 0.05894,29.85055 0.343722,1.5345 1.48636899,4.33525 3.42558899,6.74351 2.188745,2.76521 6.134488,5.04878 9.7918703,5.66627 0.617027,0.10419 1.940572,0.17494 2.941116,0.15728 l 3.103301,-0.032 v -3.18689 -3.1869 l -3.333627,-0.11992 c -2.359368,-0.13773 -4.054064,-0.68242 -5.593801,-1.79802 -4.6876043,-3.3963 -5.0921823,-10.2596 -0.8356013,-14.1717 1.9208823,-1.76543 3.2926323,-2.35652 5.6794953,-2.44702 1.068916,-0.0405 2.160189,-0.11862 2.42529,-0.17387 l 0.481964,-0.10042 -0.05392,-30.64312 z m 4.492347,0 v 80.25281 h 80.463052 c 0.15504,0 2.58538,-0.0125 2.58582,-2.58105 v -75.04216 c 0,0 -0.45003,-2.616 -3.08408,-2.6296 z m 23.180715,16.47473 v 4.2e-4 c 0.282693,8e-4 0.596466,0.003 0.946371,0.006 l 2.579539,0.0253 0.04222,7.17755 c 0.04205,7.13789 0.04336,7.17934 0.223635,7.51327 0.207322,0.38404 0.373027,0.54451 0.791292,0.76642 0.284286,0.15086 0.750379,0.15804 11.796649,0.18301 8.409352,0.0189 11.621539,2.1e-4 11.950055,-0.0701 0.491705,-0.10521 0.944425,-0.43826 1.182975,-0.87058 0.13104,-0.23753 0.14743,-0.89385 0.18601,-7.48007 l 0.0422,-7.21947 1.69168,0.005 c 1.37506,0.005 1.81227,0.13055 2.64016,0.74486 0.26861,0.19931 2.67828,2.54862 5.35469,5.22061 3.57852,3.5726 4.4189,4.9708 4.58514,5.2841 0.51496,0.97041 0.4853,-0.0984 0.4853,17.51047 0,11.60593 -0.0268,17.22789 -0.0953,17.54865 -0.30317,1.41722 -1.50848,1.60659 -2.93234,1.90425 -0.67276,0.14062 -43.194865,0.11848 -43.779382,-0.0228 -1.377691,-0.33303 -2.527413,-0.50239 -2.8224,-1.88143 -0.135638,-0.63412 -0.135638,-43.22092 0,-43.85502 0.224549,-1.04975 1.079943,-1.64728 2.018984,-2.09555 0.677379,-0.32336 1.133676,-0.39948 3.112499,-0.39546 z m 21.954278,1.48639 h 3.315227 c 0.719475,0 1.298755,0.57505 1.298755,1.28928 v 9.7304 c 0,0.71422 -0.57928,1.28927 -1.298755,1.28927 h -3.315227 c -0.719467,0 -1.298756,-0.57505 -1.298756,-1.28927 v -9.7304 c 0,-0.71423 0.579289,-1.28928 1.298756,-1.28928 z m 17.022598,40.82416 v 3.25867 h 3.64253 v -3.25867 z m 17.555551,28.84053 c -0.0795,-0.003 -0.15812,-0.003 -0.23575,4.2e-4 -0.41403,0.013 -0.7969,0.0942 -1.10605,0.25229 -0.71437,0.36524 -1.450071,0.81919 -1.713421,1.40878 -0.13862,0.31033 -0.0417,1.97722 -0.10869,4.83222 l -0.11453,4.88657 -37.052776,0.10623 -40.931905,0.10622 -0.05978,2.96405 c -0.03292,1.63031 -0.01184,3.08833 0.04682,3.24002 0.08687,0.22474 11.258647,0.61927 43.113083,0.27595 H 103.6145 l 0.90081,-0.5241 c 1.59207,-0.89923 1.27367,-1.02144 1.27367,-9.09053 0,-7.03503 0.2071,-6.26459 -0.2738,-6.9792 -0.59587,-0.88549 -1.96943,-1.44472 -3.16224,-1.47892 z"
       id="path21"
       inkscape:connector-curvature="0"
       inkscape:export-filename="C:\Users\jonsiu\Desktop\path21.png"
       inkscape:export-xdpi="115.6315"
       inkscape:export-ydpi="115.6315" />
  </g>
</svg>
